<svg width="46" height="17" viewBox="0 0 46 17" fill="none" xmlns="http://www.w3.org/2000/svg">
<g id="Group 63">
<path id="path3082" d="M8.90723 16.6423V9.43896H16.5351L17.3535 10.5057L18.1989 9.43896H45.8862V16.1455C45.8862 16.1455 45.1622 16.6351 44.3247 16.6423H28.9937L28.071 15.5068V16.6423H25.0474V14.704C25.0474 14.704 24.6344 14.9745 23.7414 14.9745H22.7122V16.6423H18.1342L17.317 15.5527L16.4872 16.6423H8.90723Z" fill="#016FD0"/>
<path id="path3080" d="M0 4.00973L1.72012 0H4.69488L5.67106 2.24609V0H9.36896L9.95009 1.6234L10.5135 0H27.1132V0.81614C27.1132 0.81614 27.9858 0 29.42 0L34.806 0.0188204L35.7653 2.23551V0H38.8599L39.7116 1.27331V0H42.8346V7.20333H39.7116L38.8954 5.92589V7.20333H34.3487L33.8915 6.06782H32.6692L32.2194 7.20333H29.1361C27.902 7.20333 27.1132 6.40385 27.1132 6.40385V7.20333H22.4642L21.5415 6.06782V7.20333H4.25418L3.79727 6.06782H2.57887L2.12519 7.20333H0V4.00973Z" fill="#016FD0"/>
<path id="path3046" d="M2.32787 0.887695L0.0078125 6.28195H1.51829L1.94637 5.20177H4.435L4.86086 6.28195H6.40461L4.08677 0.887695H2.32787ZM3.18625 2.1431L3.94482 4.03065H2.42547L3.18625 2.1431Z" fill="white"/>
<path id="path3048" d="M6.56396 6.28097V0.886719L8.71044 0.894693L9.9589 4.37256L11.1775 0.886719H13.3068V6.28097H11.9582V2.30626L10.5287 6.28097H9.34602L7.91253 2.30626V6.28097H6.56396Z" fill="white"/>
<path id="path3050" d="M14.231 6.28102V0.886719H18.6316V2.09334H15.5938V3.01605H18.5606V4.15169H15.5938V5.10989H18.6316V6.28102H14.231Z" fill="white"/>
<path id="path3052" d="M19.4112 0.887695V6.282H20.7597V4.3656H21.3276L22.9445 6.282H24.5925L22.8181 4.29463C23.5463 4.23317 24.2975 3.60813 24.2975 2.63774C24.2975 1.50259 23.4066 0.887695 22.4122 0.887695H19.4112ZM20.7597 2.09431H22.3013C22.6711 2.09431 22.9401 2.38358 22.9401 2.66214C22.9401 3.02051 22.5915 3.22996 22.3212 3.22996H20.7597V2.09431Z" fill="white"/>
<path id="path3054" d="M26.2266 6.28102H24.8496V0.886719H26.2266V6.28102Z" fill="white"/>
<path id="path3056" d="M29.4913 6.28102H29.1941C27.756 6.28102 26.8828 5.14804 26.8828 3.60605C26.8828 2.02596 27.7462 0.886719 29.5622 0.886719H31.0528V2.16432H29.5078C28.7705 2.16432 28.2492 2.73964 28.2492 3.61936C28.2492 4.66403 28.8453 5.10279 29.7042 5.10279H30.0591L29.4913 6.28102Z" fill="white"/>
<path id="path3058" d="M32.4271 0.887695L30.107 6.28195H31.6175L32.0456 5.20177H34.5342L34.96 6.28195H36.5038L34.186 0.887695H32.4271ZM33.2854 2.1431L34.044 4.03065H32.5246L33.2854 2.1431Z" fill="white"/>
<path id="path3060" d="M36.6597 6.28102V0.886719H38.3743L40.5635 4.2759V0.886719H41.9121V6.28102H40.253L38.0083 2.80312V6.28102H36.6597Z" fill="white"/>
<path id="path3062" d="M9.83008 15.7205V10.3262H14.2307V11.5328H11.1928V12.4555H14.1597V13.5911H11.1928V14.5493H14.2307V15.7205H9.83008Z" fill="white"/>
<path id="path3064" d="M31.3922 15.7205V10.3262H35.7928V11.5328H32.7549V12.4555H35.7076V13.5911H32.7549V14.5493H35.7928V15.7205H31.3922Z" fill="white"/>
<path id="path3066" d="M14.4021 15.7204L16.5447 13.0566L14.3511 10.3262H16.0501L17.3565 12.0141L18.6674 10.3262H20.2999L18.1351 13.0233L20.2816 15.7204H18.5829L17.3144 14.0591L16.0767 15.7204H14.4021Z" fill="white"/>
<path id="path3068" d="M20.4405 10.3267V15.721H21.8245V14.0175H23.2441C24.4452 14.0175 25.3557 13.3803 25.3557 12.141C25.3557 11.1144 24.6416 10.3267 23.4193 10.3267H20.4405ZM21.8245 11.5466H23.3195C23.7075 11.5466 23.9849 11.7844 23.9849 12.1676C23.9849 12.5277 23.7089 12.7887 23.3151 12.7887H21.8245V11.5466Z" fill="white"/>
<path id="path3072" d="M25.9419 10.3262V15.7205H27.2905V13.8041H27.8583L29.4753 15.7205H31.1233L29.3489 13.7331C30.0771 13.6716 30.8283 13.0466 30.8283 12.0762C30.8283 10.9411 29.9373 10.3262 28.9429 10.3262H25.9419ZM27.2905 11.5328H28.832C29.2018 11.5328 29.4708 11.8221 29.4708 12.1006C29.4708 12.459 29.1223 12.6684 28.852 12.6684H27.2905V11.5328Z" fill="white"/>
<path id="path3074" d="M36.4184 15.7205V14.5493H39.1173C39.5166 14.5493 39.6895 14.3335 39.6895 14.0969C39.6895 13.8701 39.5172 13.6408 39.1173 13.6408H37.8977C36.8375 13.6408 36.2471 12.9949 36.2471 12.0252C36.2471 11.1603 36.7878 10.3262 38.3632 10.3262H40.9893L40.4215 11.5399H38.1502C37.7161 11.5399 37.5824 11.7677 37.5824 11.9853C37.5824 12.2089 37.7476 12.4555 38.0792 12.4555H39.3568C40.5386 12.4555 41.0514 13.1259 41.0514 14.0037C41.0514 14.9475 40.48 15.7205 39.2925 15.7205H36.4184Z" fill="white"/>
<path id="path3076" d="M41.3671 15.7205V14.5493H44.066C44.4654 14.5493 44.6383 14.3335 44.6383 14.0969C44.6383 13.8701 44.4659 13.6408 44.066 13.6408H42.8464C41.7863 13.6408 41.1959 12.9949 41.1959 12.0252C41.1959 11.1603 41.7365 10.3262 43.3119 10.3262H45.8844L45.3702 11.5399H43.099C42.6648 11.5399 42.5311 11.7677 42.5311 11.9853C42.5311 12.2089 42.6963 12.4555 43.028 12.4555H44.3056C45.4874 12.4555 46.0002 13.1259 46.0002 14.0037C46.0002 14.9475 45.4287 15.7205 44.2412 15.7205H41.3671Z" fill="white"/>
</g>
</svg>
